<?xml version="1.0" encoding="utf-8"?>
<!-- Generator: Adobe Illustrator 26.5.0, SVG Export Plug-In . SVG Version: 6.00 Build 0)  -->
<svg version="1.2" baseProfile="tiny" xmlns="http://www.w3.org/2000/svg" xmlns:xlink="http://www.w3.org/1999/xlink" x="0px"
	 y="0px" viewBox="0 0 1333.2 954.4" overflow="visible" xml:space="preserve">
<g id="R">
	
		<ellipse transform="matrix(0.3805 -0.9248 0.9248 0.3805 445.6318 1110.8473)" fill="#CCCCCB" stroke="#000000" stroke-width="5" stroke-miterlimit="10" cx="1051.9" cy="222.8" rx="175.1" ry="140.3"/>
</g>
<g id="Z">
	<path fill="#5A5190" stroke="#000000" stroke-width="5" stroke-miterlimit="10" d="M966.8,95.3l16.3-41.5c1.8-4.7,7-7.1,11.8-5.6
		c76.3,24.4,150.4,53.7,222,87.7c4.9,2.3,6.9,8.3,4.3,13.1l-27.6,51.4"/>
</g>
<g id="L">
	
		<ellipse transform="matrix(0.9248 -0.3805 0.3805 0.9248 -63.5623 124.0785)" fill="#CCCCCB" stroke="#000000" stroke-width="5" stroke-miterlimit="10" cx="282.1" cy="222.8" rx="140.3" ry="175.1"/>
</g>
<g id="Zl">
	<path fill="#5A5190" stroke="#000000" stroke-width="5" stroke-miterlimit="10" d="M292.7,82.3l-5.1-11.5c-0.6-1.3-2.1-1.9-3.4-1.4
		c-21.3,7.9-41.9,17.2-61.7,27.7c-1.4,0.7-1.8,2.4-1,3.8l8.5,14.2"/>
</g>
<g id="Base">
	<path fill="#3C3760" stroke="#000000" stroke-width="5" stroke-miterlimit="10" d="M14,389.4c0,0-18.7,273.7,17.1,414.1
		s96.6,142.9,96.6,142.9s60.9,11.4,99.1-78c0,0,14.6-52,17.1-79.6c2.4-27.6,10.6-146.2,10.6-146.2"/>
	<path fill="#3C3760" stroke="#000000" stroke-width="5" stroke-miterlimit="10" d="M1321.3,389.4c0,0,18.7,273.7-17.1,414.1
		s-96.6,142.9-96.6,142.9s-60.9,11.4-99.1-78c0,0-14.6-52-17.1-79.6c-2.4-27.6-10.6-146.2-10.6-146.2"/>
	<g>
		<g>
			
				<path fill="#463F6F" stroke="#000000" stroke-width="5" stroke-linecap="round" stroke-linejoin="round" stroke-miterlimit="10" d="
				M290.4,722.7c3.9,10.3,8.9,20.3,15,30c49.1,77.8,152,101.1,229.9,51.9c77.8-49.1,101.1-152,51.9-229.9
				c-9.1-14.5-20.1-27-32.4-37.6c-23.4-24.5-38.6-50.8-48.4-75.4c-21.8-54.9-16.7-101.7-16.7-101.7l-0.2,0.1
				c0.9-45.2-10.9-91.2-36.9-132.3c-54.1-85.6-153.5-125.2-247.3-107.3c-28.5,5.5-56.6,16.3-82.6,32.7
				C11,223.9-22.4,371.6,48.1,483.3c26.6,42.2,64.3,73.2,106.9,91.7c26.6,14.7,52.6,31.5,76.9,50.2c26.3,20.2,42.9,49.4,53.3,81.1
				c1,3.7,2.1,7.3,3.3,10.9L290.4,722.7z"/>
			<path fill="#463F6F" stroke="#000000" stroke-width="5" stroke-miterlimit="10" d="M1044,722.7c-3.9,10.3-8.9,20.3-15,30
				c-49.1,77.8-152,101.1-229.9,51.9c-77.8-49.1-101.1-152-51.9-229.9c9.1-14.5,20.1-27,32.4-37.6c23.4-24.5,38.6-50.8,48.4-75.4
				c21.8-54.9,16.7-101.7,16.7-101.7l0.2,0.1c-0.9-45.2,10.9-91.2,36.9-132.3c54.1-85.6,153.5-125.2,247.3-107.3
				c28.5,5.5,56.6,16.3,82.6,32.7c111.7,70.5,145.1,218.2,74.6,329.9c-26.6,42.2-64.3,73.2-106.9,91.7
				c-26.6,14.7-52.6,31.5-76.9,50.2c-26.3,20.2-42.9,49.4-53.3,81.1c-1,3.7-2.1,7.3-3.3,10.9L1044,722.7z"/>
		</g>
		<path fill="#463F6F" stroke="#000000" stroke-width="5" stroke-miterlimit="10" d="M843.6,360.1l0.2,0.1
			c-0.9-45.2,10.9-91.2,36.9-132.3c49-77.6,135.2-117.4,220.7-110.8C968.2,47.2,817.2,7.6,656.9,7.6c-163,0-316.4,40.9-450.5,113.1
			c93.8-18,193.2,21.6,247.3,107.3c25.9,41.1,37.8,87.1,36.9,132.3l0.2-0.1c0,0-5.1,46.7,16.7,101.7c47.3-14.2,97.5-21.8,149.5-21.8
			c58.3,0,114.5,9.6,167.8,27.3C849,410,843.6,360.1,843.6,360.1z"/>
		<path fill="none" stroke="#000000" stroke-width="5" stroke-miterlimit="10" d="M646.9-2.4"/>
		<line fill="none" stroke="#000000" stroke-width="5" stroke-miterlimit="10" x1="431.8" y1="472.4" x2="429.7" y2="472.4"/>
		<line fill="none" stroke="#000000" stroke-width="5" stroke-miterlimit="10" x1="351.7" y1="448.6" x2="351.7" y2="450.8"/>
	</g>
	<circle fill="#3B365F" stroke="#000000" stroke-width="5" stroke-miterlimit="10" cx="447.6" cy="664.5" r="112.2"/>
	<g>
		<path fill="#CCCCCB" d="M424.6,756.5c-5.4,0-9.9-4.4-9.9-9.9v-51.5h-51.5c-5.4,0-9.9-4.4-9.9-9.9v-43.7c0-5.4,4.4-9.9,9.9-9.9
			h51.5v-51.5c0-5.4,4.4-9.9,9.9-9.9h43.7c5.4,0,9.9,4.4,9.9,9.9v51.5h51.5c5.4,0,9.9,4.4,9.9,9.9v43.7c0,5.4-4.4,9.9-9.9,9.9h-51.5
			v51.5c0,5.4-4.4,9.9-9.9,9.9H424.6z"/>
		<path d="M468.3,572.8c4.1,0,7.4,3.3,7.4,7.4v54h54c4.1,0,7.4,3.3,7.4,7.4v43.7c0,4.1-3.3,7.4-7.4,7.4h-54v54
			c0,4.1-3.3,7.4-7.4,7.4h-43.7c-4.1,0-7.4-3.3-7.4-7.4v-54h-54c-4.1,0-7.4-3.3-7.4-7.4v-43.7c0-4.1,3.3-7.4,7.4-7.4h54v-54
			c0-4.1,3.3-7.4,7.4-7.4H468.3 M468.3,567.8h-43.7c-6.8,0-12.4,5.6-12.4,12.4v49h-49c-6.8,0-12.4,5.6-12.4,12.4v43.7
			c0,6.8,5.6,12.4,12.4,12.4h49v49c0,6.8,5.6,12.4,12.4,12.4h43.7c6.8,0,12.4-5.6,12.4-12.4v-49h49c6.8,0,12.4-5.6,12.4-12.4v-43.7
			c0-6.8-5.6-12.4-12.4-12.4h-49v-49C480.7,573.3,475.1,567.8,468.3,567.8L468.3,567.8z"/>
	</g>
	<circle fill="#6A6A6A" cx="446.4" cy="663.4" r="22.3"/>
	<circle fill="#3D3C3C" cx="446.4" cy="663.4" r="15.3"/>
	<polygon fill="#C1C230" stroke="#000000" stroke-width="5" stroke-miterlimit="10" points="888.5,552 822.7,573.4 782.1,629.4 
		782.1,698.6 822.8,754.5 888.6,775.9 954.4,754.5 995.1,698.5 995,629.3 954.4,573.3 	"/>
	<circle fill="#5A5190" stroke="#000000" stroke-width="5" stroke-miterlimit="10" cx="253" cy="356.1" r="162.9"/>
	<circle fill="#5A5190" stroke="#000000" stroke-width="5" stroke-miterlimit="10" cx="1086.4" cy="356.4" r="148.9"/>
	<text transform="matrix(1 0 0 1 556.0233 311.3743)" fill="#151522" font-family="'VarelaRound-Regular'" font-size="33.1471px">S</text>
	<text transform="matrix(1 0 0 1 576.6307 311.3743)" fill="#151522" font-family="'VarelaRound-Regular'" font-size="33.1471px">T</text>
	<text transform="matrix(1 0 0 1 593.181 311.3743)" fill="#151522" font-family="'VarelaRound-Regular'" font-size="33.1471px">A</text>
	<text transform="matrix(1 0 0 1 617.033 311.3743)" fill="#151522" font-family="'VarelaRound-Regular'" font-size="33.1471px">R</text>
	<text transform="matrix(1 0 0 1 640.1859 311.3743)" fill="#151522" font-family="'VarelaRound-Regular'" font-size="33.1471px">T</text>
	<text transform="matrix(1 0 0 1 657.0076 311.3743)" fill="#151522" font-family="'VarelaRound-Regular'" font-size="33.1471px">/</text>
	<text transform="matrix(1 0 0 1 670.6443 311.3743)" fill="#151522" font-family="'VarelaRound-Regular'" font-size="33.1471px">P</text>
	<text transform="matrix(1 0 0 1 690.4832 311.3743)" fill="#151522" font-family="'VarelaRound-Regular'" font-size="33.1471px">A</text>
	<text transform="matrix(1 0 0 1 713.4598 311.3743)" fill="#151522" font-family="'VarelaRound-Regular'" font-size="33.1471px">U</text>
	<text transform="matrix(1 0 0 1 738.118 311.3743)" fill="#151522" font-family="'VarelaRound-Regular'" font-size="33.1471px">S</text>
	<text transform="matrix(1 0 0 1 758.202 311.3743)" fill="#151522" font-family="'VarelaRound-Regular'" font-size="33.1471px">E</text>
</g>
<g id="char">
	<g>
		<path fill="#463F6F" stroke="#000000" stroke-width="5" stroke-miterlimit="10" d="M796.5,178H740c-7.1,0-12.9-5.8-12.9-12.9
			v-56.6c0-7.1,5.8-12.9,12.9-12.9h56.6c7.1,0,12.9,5.8,12.9,12.9v56.6C809.4,172.2,803.6,178,796.5,178z"/>
		<path fill="#5A5190" d="M771.7,161.5c-4.5,0-8.6-1-12.3-3c-3.6-2-6.5-4.8-8.6-8.5c-2.1-3.7-3.2-8.1-3.2-13.2
			c0-5.1,1.1-9.5,3.2-13.2c2.1-3.7,5-6.5,8.6-8.5c3.6-2,7.7-3,12.3-3c3.4,0,6.3,0.4,8.8,1.2c2.5,0.8,4.8,1.8,6.9,3
			c0.5,0.2,0.8,0.5,1.1,0.9c0.3,0.4,0.4,0.9,0.4,1.5c0,0.7-0.2,1.4-0.7,1.9c-0.5,0.6-1.2,0.8-2.1,0.8c-0.5,0-0.9-0.1-1.2-0.3
			c-1.8-1-3.7-1.7-5.6-2.3c-1.9-0.6-4.2-0.9-6.9-0.9c-4,0-7.4,0.8-10.2,2.5s-4.8,3.9-6.2,6.7c-1.4,2.8-2.1,6-2.1,9.5
			c0,3.5,0.7,6.7,2.1,9.5c1.4,2.8,3.4,5.1,6.2,6.7c2.8,1.7,6.1,2.5,10.2,2.5c2.7,0,5-0.3,6.9-0.9c1.9-0.6,3.8-1.4,5.6-2.3
			c0.4-0.2,0.8-0.3,1.2-0.3c0.9,0,1.6,0.3,2.1,0.8c0.5,0.6,0.7,1.2,0.7,1.9c0,0.6-0.2,1.2-0.4,1.5c-0.3,0.4-0.6,0.7-1.1,0.9
			c-2.1,1.2-4.4,2.2-6.9,3C778,161.1,775.1,161.5,771.7,161.5z"/>
	</g>
</g>
<g id="home">
	<g>
		<path fill="#463F6F" stroke="#000000" stroke-width="5" stroke-miterlimit="10" d="M667.7,176.3L667.7,176.3
			c-21.8,0-39.5-17.7-39.5-39.5v0c0-21.8,17.7-39.5,39.5-39.5h0c21.8,0,39.5,17.7,39.5,39.5v0C707.2,158.6,689.5,176.3,667.7,176.3z
			"/>
		<path fill="#5A5190" d="M648.5,157.3c0,0.9,0.7,1.6,1.6,1.6h35.1c0.9,0,1.6-0.7,1.6-1.6v-22.1h-38.3V157.3z M658.1,140.9
			c0-0.9,0.7-1.6,1.6-1.6h15.9c0.9,0,1.6,0.7,1.6,1.6v9.9c0,0.9-0.7,1.6-1.6,1.6h-15.9c-0.9,0-1.6-0.7-1.6-1.6V140.9z"/>
		<path fill="#5A5190" d="M692.1,132.3l-23.5-17.3c-0.6-0.4-1.3-0.4-1.9,0l-23.5,17.3c-1.3,0.9-0.6,2.9,1,2.9h4.4v-0.9
			c0-0.9,0.7-1.6,1.6-1.6h35.1c0.9,0,1.6,0.7,1.6,1.6v0.9h4.4C692.7,135.2,693.4,133.3,692.1,132.3z"/>
	</g>
</g>
<g id="capture">
	<g>
		<path fill="#463F6F" stroke="#000000" stroke-width="5" stroke-miterlimit="10" d="M595.4,178h-56.6c-7.1,0-12.9-5.8-12.9-12.9
			v-56.6c0-7.1,5.8-12.9,12.9-12.9h56.6c7.1,0,12.9,5.8,12.9,12.9v56.6C608.2,172.2,602.5,178,595.4,178z"/>
		<path fill="#5A5190" d="M567.1,162.5L567.1,162.5c-14.2,0-25.7-11.5-25.7-25.7v0c0-14.2,11.5-25.7,25.7-25.7h0
			c14.2,0,25.7,11.5,25.7,25.7v0C592.8,151,581.3,162.5,567.1,162.5z"/>
	</g>
</g>
<g id="startpause">
	<circle fill="#CCCCCB" stroke="#000000" stroke-width="5" stroke-miterlimit="10" cx="673.8" cy="362.8" r="29.6"/>
</g>
<g id="lefttoggle">
	<g>
		<circle fill="#CCCCCB" stroke="#000000" stroke-width="5" stroke-miterlimit="10" cx="253" cy="356.1" r="94.5"/>
		<circle fill="#CCCCCB" stroke="#42383A" stroke-width="5" stroke-miterlimit="10" cx="253" cy="356.1" r="76"/>
		<circle fill="#CCCCCB" stroke="#42383A" stroke-width="5" stroke-miterlimit="10" cx="253" cy="356.1" r="54.3"/>
		<circle fill="#CCCCCB" stroke="#42383A" stroke-width="5" stroke-miterlimit="10" cx="253" cy="356.1" r="27.1"/>
	</g>
</g>
<g id="dleft">
	<path fill="#6A6A6A" d="M371.5,665.1l28.2,16.3c1.2,0.7,2.7-0.2,2.7-1.6v-32.6c0-1.4-1.5-2.2-2.7-1.6L371.5,662
		C370.3,662.7,370.3,664.4,371.5,665.1z"/>
</g>
<g id="ddown">
	<path fill="#6A6A6A" d="M448,738.5l16.3-28.2c0.7-1.2-0.2-2.7-1.6-2.7h-32.6c-1.4,0-2.2,1.5-1.6,2.7l16.3,28.2
		C445.6,739.7,447.3,739.7,448,738.5z"/>
</g>
<g id="dright">
	<path fill="#6A6A6A" d="M521.4,662l-28.2-16.3c-1.2-0.7-2.7,0.2-2.7,1.6v32.6c0,1.4,1.5,2.2,2.7,1.6l28.2-16.3
		C522.6,664.4,522.6,662.7,521.4,662z"/>
</g>
<g id="dup">
	<path fill="#6A6A6A" d="M444.9,588.6l-16.3,28.2c-0.7,1.2,0.2,2.7,1.6,2.7h32.6c1.4,0,2.2-1.5,1.6-2.7L448,588.6
		C447.3,587.4,445.6,587.4,444.9,588.6z"/>
</g>
<g id="C">
	<circle fill="#F7EC13" stroke="#000000" stroke-width="5" stroke-miterlimit="10" cx="888.6" cy="663.9" r="59.7"/>
	<path fill="#7E7E32" d="M893.1,696.5c-6,0-11.4-1.3-16.2-3.9s-8.6-6.4-11.4-11.2c-2.8-4.9-4.2-10.7-4.2-17.4
		c0-6.8,1.4-12.6,4.2-17.4c2.8-4.8,6.6-8.6,11.4-11.2c4.8-2.6,10.2-3.9,16.2-3.9c4.5,0,8.3,0.5,11.6,1.6c3.3,1.1,6.3,2.4,9.1,4
		c0.6,0.3,1.1,0.7,1.4,1.2c0.3,0.5,0.5,1.2,0.6,2c0.1,1-0.2,1.8-0.9,2.5c-0.7,0.7-1.6,1.1-2.7,1.1c-0.6,0-1.1-0.1-1.6-0.4
		c-2.4-1.3-4.9-2.3-7.4-3.1c-2.5-0.8-5.6-1.2-9.2-1.2c-5.3,0-9.8,1.1-13.4,3.3c-3.6,2.2-6.3,5.1-8.2,8.8s-2.7,7.9-2.7,12.6
		c0,4.7,0.9,8.8,2.7,12.6c1.8,3.7,4.5,6.7,8.2,8.8s8.1,3.3,13.4,3.3c3.6,0,6.6-0.4,9.2-1.2c2.5-0.8,5-1.8,7.4-3.1
		c0.5-0.2,1-0.4,1.6-0.4c1.1,0,2.1,0.4,2.7,1.1c0.7,0.7,1,1.6,0.9,2.5c-0.1,0.8-0.3,1.5-0.6,2c-0.3,0.5-0.8,0.9-1.4,1.2
		c-2.8,1.6-5.8,2.9-9.1,4C901.4,695.9,897.6,696.5,893.1,696.5z"/>
</g>
<g id="x">
	<path fill="#CCCCCB" stroke="#000000" stroke-width="4.9647" stroke-miterlimit="10" d="M1267.4,375.7L1267.4,375.7
		c-6.5,15.9-25.7,22.4-40.8,13.9l0,0c-6.1-3.5-9.9-9.9-10-16.9l-0.6-19.2c-0.5-18.3-5.2-35.6-13.1-50.9c-1.6-3.1-3.3-6.1-5.1-9
		c-3.1-5-3.8-11.2-1.5-16.6c0.1-0.3,0.3-0.6,0.5-1l0,0c7.6-14.9,26.8-19.7,40.7-10.2v0c0.6,0.4,1.2,0.8,1.7,1.2
		c9.4,6.9,16.4,16.5,20.6,27.3c2.9,7.4,5.3,15,7.1,22.9l2.7,14.1c1,6.8,1.6,13.7,1.9,20.7c0.1,1.8,0.1,3.6,0.1,5.3
		c0,2.6-0.2,5.2-0.8,7.7C1270,368.6,1268.8,372.2,1267.4,375.7L1267.4,375.7c-6.5,15.9-25.7,22.4-40.8,13.9l0,0
		c-6.1-3.5-9.9-9.9-10-16.9"/>
	<path fill="#353132" d="M1228.7,345.2c-0.6,0-1.1-0.2-1.5-0.6c-0.4-0.4-0.6-0.9-0.6-1.5c0-0.5,0.2-1,0.5-1.4l11.9-14.4l-11.8-14.3
		c-0.3-0.4-0.5-0.9-0.5-1.4c0-0.6,0.2-1.2,0.6-1.6c0.4-0.4,1-0.6,1.6-0.6c0.8,0,1.5,0.3,1.9,0.9l10.9,13.6l10.9-13.7
		c0.4-0.5,0.9-0.8,1.7-0.8c0.6,0,1.2,0.2,1.6,0.6c0.4,0.4,0.7,0.9,0.7,1.6c0,0.5-0.1,0.9-0.4,1.3l-11.9,14.5l11.9,14.4
		c0.3,0.3,0.5,0.8,0.5,1.3c0,0.6-0.2,1.1-0.6,1.6c-0.4,0.5-1,0.7-1.7,0.7c-0.8,0-1.4-0.3-1.9-1l-11-13.7l-10.9,13.7
		C1229.9,344.8,1229.3,345.2,1228.7,345.2z"/>
</g>
<g id="y">
	<path fill="#CCCCCB" stroke="#000000" stroke-width="5" stroke-miterlimit="10" d="M1107.6,175.1L1107.6,175.1
		c16.1,6.5,22.7,25.8,14,40.8v0c-3.5,6.1-10.1,9.9-17.2,9.9l-19.5,0.6c-18.6,0.5-36.1,5.2-51.7,13c-3.1,1.6-6.2,3.3-9.1,5.1
		c-5.1,3.1-11.4,3.8-16.8,1.4c-0.3-0.1-0.7-0.3-1-0.5v0c-15.1-7.6-20-26.8-10.3-40.7h0c0.4-0.6,0.8-1.2,1.3-1.7
		c7-9.4,16.8-16.4,27.7-20.5c7.5-2.9,15.2-5.2,23.2-7.1l14.3-2.7c6.9-1,13.9-1.6,21-1.8c1.8-0.1,3.6-0.1,5.4-0.1
		c2.6,0,5.3,0.3,7.8,0.8C1100.3,172.5,1104,173.7,1107.6,175.1L1107.6,175.1c16.1,6.5,22.7,25.8,14,40.8v0
		c-3.5,6.1-10.1,9.9-17.2,9.9"/>
	<path fill="#353132" d="M1058.2,220.9c-0.7,0-1.2-0.2-1.7-0.7c-0.5-0.4-0.7-1-0.7-1.7v-13.2l-12.3-17.3c-0.3-0.4-0.4-0.9-0.4-1.4
		c0-0.7,0.2-1.2,0.6-1.7c0.4-0.5,1-0.7,1.6-0.7c0.9,0,1.5,0.4,2.1,1.2l10.8,15.7l10.8-15.7c0.5-0.8,1.2-1.2,2.1-1.2
		c0.7,0,1.2,0.2,1.7,0.7c0.4,0.5,0.6,1,0.6,1.7c0,0.5-0.1,0.9-0.4,1.4l-12.4,17.3v13.2c0,0.7-0.2,1.2-0.7,1.7
		C1059.4,220.6,1058.9,220.9,1058.2,220.9z"/>
</g>
<g id="B">
	<g>
		<circle fill="#ED2024" stroke="#000000" stroke-width="5" stroke-miterlimit="10" cx="942.3" cy="435" r="44"/>
		<path fill="#7F1416" d="M928.6,456c-0.8,0-1.4-0.3-1.9-0.8c-0.5-0.5-0.8-1.2-0.8-1.9v-36.5c0-0.8,0.3-1.4,0.8-2
			c0.5-0.5,1.2-0.8,1.9-0.8h14.2c4.4,0,7.8,1,10,3c2.3,2,3.4,4.6,3.4,7.9c0,2.5-0.6,4.5-1.8,6c-1.2,1.5-2.6,2.6-4.1,3.3
			c1.4,0.4,2.8,1.1,4.1,2c1.3,0.9,2.3,2,3,3.3c0.8,1.3,1.1,2.9,1.1,4.8c0,2.3-0.5,4.4-1.5,6.2c-1,1.8-2.7,3.2-4.9,4.2
			c-2.3,1-5.3,1.5-9,1.5H928.6z M931.4,432.2h10c2.5,0,4.5-0.3,5.9-0.9c1.4-0.6,2.4-1.4,2.9-2.5c0.6-1,0.8-2.2,0.8-3.5
			c0-1.9-0.8-3.4-2.3-4.5c-1.5-1.1-3.7-1.7-6.4-1.7h-11V432.2z M931.4,450.9h11.3c2.8,0,4.9-0.3,6.5-0.9c1.5-0.6,2.6-1.4,3.3-2.4
			c0.6-1,1-2.2,1-3.6c0-2.4-0.9-4.1-2.7-5.2c-1.8-1.1-4.5-1.7-7.9-1.7h-11.3V450.9z"/>
	</g>
</g>
<g id="A">
	<g>
		<circle fill="#6FCCDD" stroke="#000000" stroke-width="5" stroke-miterlimit="10" cx="1086.3" cy="356.1" r="77.2"/>
		<path fill="#356268" d="M1066.8,380.9c-1,0-1.8-0.3-2.3-0.9s-0.8-1.4-0.8-2.2c0-0.4,0.1-0.8,0.4-1.4l17.9-42.2
			c0.3-0.7,0.8-1.4,1.5-2c0.7-0.6,1.5-0.9,2.6-0.9h0.7c1.1,0,1.9,0.3,2.6,0.9c0.7,0.6,1.1,1.3,1.5,2l17.9,42.2
			c0.2,0.6,0.4,1,0.4,1.4c0,0.9-0.3,1.6-0.8,2.2s-1.3,0.9-2.3,0.9c-1.5,0-2.5-0.7-3-2l-4.6-10.9h-23.9l-4.6,10.9
			C1069.3,380.3,1068.3,380.9,1066.8,380.9z M1076.8,362.2h18.9l-9.5-22.8L1076.8,362.2z"/>
	</g>
</g>
</svg>
